<?xml version="1.0" encoding="UTF-8" standalone="no"?>
<!-- Created with Inkscape (http://www.inkscape.org/) -->

<svg
   xmlns:dc="http://purl.org/dc/elements/1.1/"
   xmlns:cc="http://creativecommons.org/ns#"
   xmlns:rdf="http://www.w3.org/1999/02/22-rdf-syntax-ns#"
   xmlns:svg="http://www.w3.org/2000/svg"
   xmlns="http://www.w3.org/2000/svg"
   xmlns:sodipodi="http://sodipodi.sourceforge.net/DTD/sodipodi-0.dtd"
   xmlns:inkscape="http://www.inkscape.org/namespaces/inkscape"
   width="402.85715"
   height="242.85715"
   id="svg2"
   version="1.1"
   inkscape:version="0.48.3.1 r9886"
   sodipodi:docname="splash.svg"
   inkscape:export-filename="./splash.png"
   inkscape:export-xdpi="100"
   inkscape:export-ydpi="100">
  <defs
     id="defs4" />
  <sodipodi:namedview
     id="base"
     pagecolor="#ffffff"
     bordercolor="#666666"
     borderopacity="1.0"
     inkscape:pageopacity="0.0"
     inkscape:pageshadow="2"
     inkscape:zoom="0.7"
     inkscape:cx="-29.128941"
     inkscape:cy="-20.582768"
     inkscape:document-units="px"
     inkscape:current-layer="layer1"
     showgrid="false"
     inkscape:window-width="1366"
     inkscape:window-height="744"
     inkscape:window-x="0"
     inkscape:window-y="24"
     inkscape:window-maximized="1"
     fit-margin-top="0"
     fit-margin-left="0"
     fit-margin-right="0"
     fit-margin-bottom="0" />
  <metadata
     id="metadata7">
    <rdf:RDF>
      <cc:Work
         rdf:about="">
        <dc:format>image/svg+xml</dc:format>
        <dc:type
           rdf:resource="http://purl.org/dc/dcmitype/StillImage" />
        <dc:title></dc:title>
      </cc:Work>
    </rdf:RDF>
  </metadata>
  <g
     inkscape:label="Capa 1"
     inkscape:groupmode="layer"
     id="layer1"
     transform="translate(-68.571426,-229.50504)">
    <rect
       style="fill:#36a7f0;fill-opacity:0.94957983;stroke:none"
       id="rect2985"
       width="402.85715"
       height="242.85715"
       x="68.571426"
       y="229.50504" />
    <g
       transform="matrix(0.41975539,0,0,0.41975539,43.021866,209.60449)"
       id="layer1-9"
       inkscape:label="Layer 1">
      <path
         sodipodi:nodetypes="csssssssssssssssssscccssssssccccccscccccssssssscccsssssssssssscccssssssssssssssssssssssssssssssssssssccssssssssc"
         id="path1368"
         d="m 267.13223,700.01589 c -0.46475,-1.21111 -2.85327,-1.49426 -12.60479,-1.49426 -6.61726,0 -12.03138,-0.23144 -12.03138,-0.51432 0,-0.28288 3.24298,-4.67038 7.20663,-9.75 12.98359,-16.63918 26.79337,-36.06801 26.79337,-37.69531 0,-0.87744 2.25,-4.72061 5,-8.54037 5.38852,-7.48468 5.80659,-8.5 3.5,-8.5 -2.55353,0 -1.6594,-1.55356 1.86007,-3.23188 2.62735,-1.2529 5.57127,-5.10053 13.5,-17.64418 5.57694,-8.82303 10.13994,-16.28534 10.13994,-16.58291 0,-0.29757 -0.9266,-0.54103 -2.059,-0.54103 -2.834,0 -1.5993,-1.61029 1.7882,-2.33204 2.1694,-0.46223 4.2798,-2.90028 9.7232,-11.23262 6.7969,-10.40442 11.0935,-14.87511 14.9765,-15.58346 3.1221,-0.56956 2.3455,-2.32543 -1.1789,-2.66524 -3.49,-0.33649 -3.9725,-1.06411 -2.0084,-3.02828 0.9889,-0.98886 0.939,-1.42872 -0.2451,-2.16052 -1.2685,-0.78395 -1.1938,-1.14025 0.5084,-2.42655 1.4069,-1.06321 1.5719,-1.51706 0.5595,-1.53949 -0.7895,-0.0175 -2.4222,0.89514 -3.6281,2.02807 l -2.1927,2.05988 2.3021,-12.80988 c 4.9504,-27.54654 5.4755,-29.37757 9.7574,-34.02285 2.701,-2.9303 3.5013,-4.39356 2.5623,-4.68501 -0.751,-0.23311 -5.8654,-1.42012 -11.3654,-2.63781 -5.5,-1.21769 -14.05,-3.66736 -19,-5.44371 -4.95,-1.77635 -11.02501,-3.95135 -13.50001,-4.83332 -2.57468,-0.91749 -17.12155,-2.88679 -34,-4.60278 -35.08426,-3.56692 -46.69547,-5.98075 -94.40151,-19.62495 l -32.90151,-9.41001 -36.227885,28.97528 c -40.88252,32.6981 -36.53176,30.43105 -52.16123,27.17955 l -8.19213,-1.70426 20.43662,-36.4555 c 11.24015,-20.05053 20.10161,-36.76686 19.69214,-37.1474 -0.40948,-0.38054 -6.39032,-2.9994 -13.29076,-5.81969 l -12.54625,-5.12779 0.39218,-3.35934 0.39219,-3.35934 13.40851,-0.71815 c 7.37468,-0.39498 13.64828,-1.1061 13.94133,-1.58026 0.29304,-0.47416 -6.27165,-22.29026 -14.58821,-48.48022 -8.31656,-26.18996 -14.92962,-47.80951 -14.69569,-48.04344 0.23393,-0.23393 4.65913,0.0206 9.83376,0.56557 5.17464,0.545 10.34589,0.9987 11.49165,1.00823 1.59641,0.0133 7.06493,7.20299 23.40176,30.76733 11.725195,16.9125 22.381325,32.19044 23.680285,33.95097 1.29896,1.76054 10.04547,8.66467 19.43668,15.34251 l 17.07494,12.14153 25.66157,0.92215 c 28.61349,1.02823 44.36541,2.33742 89.68307,7.45385 29.46659,3.32681 69.7163,7.32778 70.2064,6.97877 0.1254,-0.0893 0.6549,-7.69887 1.1767,-16.91023 0.5537,-9.77406 1.429,-17.32659 2.1021,-18.13759 1.1169,-1.34581 4.554,-2.66157 10.2433,-3.9212 3.4358,-0.76071 3.6118,-2.57076 0.25,-2.57076 -2.4929,0 -2.5,-0.0271 -2.5,-9.59362 0,-8.58288 -0.2001,-9.64594 -1.8992,-10.09027 -1.4817,-0.38747 -2.4819,-2.84001 -4.5496,-11.15638 -4.8035,-19.3192 -4.1716,-17.86593 -8.088,-18.60066 -3.9169,-0.73482 -3.7713,-2.55907 0.2042,-2.55907 2.1335,0 2.4633,-0.36708 2.0218,-2.25 -0.2902,-1.2375 -3.1468,-13.69196 -6.348,-27.67658 l -5.8204,-25.42659 -3.7502,-1.57341 c -4.5306,-1.9008 -4.8246,-3.07342 -0.7706,-3.07342 1.65,0 3,-0.28143 3,-0.62539 0,-0.34397 -1.8677,-8.51303 -4.1504,-18.15347 -3.8024,-16.05888 -4.012,-17.62924 -2.5,-18.73486 1.8454,-1.34936 2.1865,-4.03694 0.6341,-4.99636 -0.559,-0.34546 -0.7832,-1.0053 -0.4983,-1.46629 0.5003,-0.8096 -6.6504,-24.85184 -18.10495,-60.8721 -3.03427,-9.54166 -5.37366,-17.47581 -5.19866,-17.63144 0.67471,-0.59999 24.31011,8.45548 24.63811,9.43967 0.1907,0.57213 0.8946,1.04024 1.5642,1.04024 0.6695,0 2.1761,1.97338 3.3479,4.3853 2.6315,5.41642 40.2182,74.41434 83.9542,154.1147 18.1089,33 33.2236,60.7875 33.5882,61.75 0.8696,2.29602 6.9657,2.37056 8.8433,0.10814 1.1857,-1.4286 2.9931,-1.55935 13.9145,-1.0066 18.2679,0.92457 28.5803,2.45777 36.2331,5.38697 5.074,1.9421 6.6465,2.98601 6.2901,4.17549 -0.2614,0.8723 -1.4113,7.211 -2.5554,14.086 -1.1441,6.875 -2.3174,13.2875 -2.6075,14.25 -0.9045,3.00178 -14.8147,2.26302 -35.3001,-1.87474 -3.1765,-0.64162 -3.3675,-0.5351 -2.8167,1.57117 1.1377,4.35042 13.238,24.32955 15.2216,25.13267 1.1015,0.44596 22.9277,3.10667 48.5027,5.91267 79.0527,8.6734 93.2571,10.98148 120.0159,19.50143 22.9999,7.32311 49.24484,21.60996 57.57494,31.34186 2.8955,3.38269 3.133,4.09266 2.0882,6.24092 -2.5389,5.21995 -20.09134,11.71608 -40.67904,15.05522 -9.7946,1.58859 -60.0769,1.57554 -74,-0.0192 -5.775,-0.66147 -29.175,-3.47503 -52,-6.25236 -43.8346,-5.33377 -56.5679,-5.83907 -66.6836,-2.64621 -5.3415,1.68594 -5.7375,2.13736 -4.1357,4.71385 1.1873,1.90975 1.0192,2.35785 -1.6807,4.47919 -8.2745,6.50143 -38.1033,32.05225 -38.7997,33.2352 -0.6554,1.11326 1.38799,2.16132 11.143,1.35833 9.96677,-0.82042 29.86093,2.15291 32.9391,3.03696 8.47177,2.43309 9.1998,1.81908 7.6633,13.48547 -0.7228,5.48766 -1.8178,12.27814 -2.4333,15.08994 -1.00554,4.46627 -4.56679,5.31724 -9.756,5.65121 -8.4563,0.52757 -24.5482,-1.11939 -30.7564,-3.14783 -1.65,-0.53911 -5.6054,-1.70347 -8.7898,-2.58747 -4.3876,-1.21803 -6.0101,-2.18694 -6.6998,-4.00085 -0.6632,-1.74439 -2.4154,-2.8681 -6.4602,-4.14313 -3.0526,-0.96225 -5.5502,-2.28726 -5.5502,-2.94448 0,-0.65721 -0.6446,-1.7299 -1.4325,-2.38376 -1.1703,-0.97129 -3.8693,0.98472 -14.75,10.68947 -18.1589,16.19647 -125.26886,106.00273 -129.46273,108.54796 -0.62986,0.38226 -1.40324,0.0226 -1.71861,-0.79923 z"
         style="fill:#000000"
         inkscape:connector-curvature="0" />
    </g>
    <text
       xml:space="preserve"
       style="font-size:12px;font-style:normal;font-variant:normal;font-weight:normal;font-stretch:normal;text-align:end;line-height:125%;letter-spacing:0px;word-spacing:0px;text-anchor:end;fill:#000000;fill-opacity:1;stroke:none;font-family:Monospace;-inkscape-font-specification:Monospace"
       x="457.14285"
       y="279.50504"
       id="text3817"
       sodipodi:linespacing="125%"><tspan
         sodipodi:role="line"
         id="tspan3819"
         x="457.14285"
         y="279.50504"
         style="font-size:40px;-inkscape-font-specification:Purisa;font-family:Purisa;font-weight:normal;font-style:normal;font-stretch:normal;font-variant:normal">Aerolíneas</tspan><tspan
         sodipodi:role="line"
         x="457.14285"
         y="329.50504"
         id="tspan3821"
         style="font-size:40px;-inkscape-font-specification:Purisa;font-family:Purisa;font-weight:normal;font-style:normal;font-stretch:normal;font-variant:normal">X</tspan></text>
  </g>
</svg>
